<svg width="500" height="500" fill="none" xmlns="http://www.w3.org/2000/svg"><path fill-rule="evenodd" clip-rule="evenodd" d="m440.206 249.329-15.262 15.569c-.395.463-.541 1.059-.972 1.499a25.257 25.257 0 0 1-36.218 0c-9.999-10.201-9.999-26.74 0-36.941.41-.41.943-.544 1.367-.925l11.176-11.409c22.483-22.937 22.483-60.117 0-83.054l-36.269-37c-22.483-22.938-58.927-22.938-81.41 0l-61.676 62.92c-22.483 22.937-22.483 60.117 0 83.054l34.412 35.107c.592.5 1.323.701 1.871 1.268 9.89 10.089 9.89 26.457 0 36.546a24.975 24.975 0 0 1-35.8.015c-.037.044-.088.089-.132.134l-40.479-41.296c-39.718-40.52-39.718-106.215 0-146.736l70.272-71.69c39.718-40.52 104.113-40.52 143.831 0l45.289 46.203c39.725 40.513 39.725 106.208 0 146.736ZM136.973 402.238c22.484 22.938 58.928 22.938 81.411 0l61.676-62.92c22.483-22.938 22.483-60.117 0-83.055l-34.412-35.106c-.593-.5-1.316-.701-1.872-1.268-9.896-10.089-9.896-26.457 0-36.546a24.974 24.974 0 0 1 35.794-.015c.036-.045.088-.089.131-.134l40.479 41.296c39.719 40.52 39.719 106.215 0 146.735l-70.271 71.69c-39.719 40.521-104.113 40.521-143.832 0l-45.288-46.202c-39.719-40.521-39.719-106.215 0-146.736l15.262-15.57c.394-.469.54-1.058.972-1.498a25.256 25.256 0 0 1 36.217 0c9.999 10.201 9.999 26.74 0 36.941-1.03 1.051-2.339 1.528-3.486 2.356.109.134.248.224.358.358l-9.422 9.612c-22.483 22.937-22.483 60.117 0 83.054l36.283 37.008Z" fill="url(#a)"/><defs><linearGradient id="a" x1="31" y1="26" x2="470" y2="26" gradientUnits="userSpaceOnUse"><stop stop-color="#0DF"/><stop offset="1" stop-color="#FF00D4"/></linearGradient></defs></svg>